<svg width="436" height="128" viewBox="0 0 436 128" fill="none" xmlns="http://www.w3.org/2000/svg">
<rect x="26.5" y="26.5" width="22" height="76" fill="#153D60" stroke="#153D60"/>
<rect x="8" y="8" width="118" height="112" rx="11" stroke="#153D60" stroke-width="16"/>
<circle cx="65.5" cy="34.5" r="8" fill="#153D60" stroke="#153D60"/>
<circle cx="100" cy="35" r="9.5" fill="#153D60" stroke="#153D60"/>
<path d="M66 83.5C70.7217 83.5 74.5 87.1083 74.5 91.5C74.5 95.8917 70.7217 99.5 66 99.5C61.2783 99.5 57.5 95.8917 57.5 91.5C57.5 87.1083 61.2783 83.5 66 83.5Z" fill="#153D60" stroke="#153D60"/>
<rect x="68.6567" y="70.3129" width="7" height="39.1116" transform="rotate(-135 68.6567 70.3129)" fill="#153D60" stroke="#153D60"/>
<rect x="62.5" y="40.5" width="7" height="46" fill="#153D60" stroke="#153D60"/>
<mask id="path-8-outside-1_73_116" maskUnits="userSpaceOnUse" x="151" y="35" width="285" height="61" fill="black">
<rect fill="white" x="151" y="35" width="285" height="61"/>
<path d="M163.456 85.256H171.016C172.584 83.296 173.816 80.44 174.712 76.688C175.664 72.936 176.14 69.212 176.14 65.516C176.14 56.724 174.488 50.312 171.184 46.28H163.456V85.256ZM152.032 95V36.2H176.392C184.344 43.256 188.32 52.832 188.32 64.928C188.32 76.968 184.596 86.992 177.148 95H152.032ZM194.852 95V36.2H225.008V46.28H206.36V60.308H222.992V70.052H206.36V85.256H225.344V95H194.852ZM267.884 36.2L255.956 95H240.164L228.236 36.2H240.332L244.952 63.416L247.808 81.056H248.312L251.168 63.416L255.788 36.2H267.884ZM272.372 95V36.2H303.032V46.28H283.88V60.98H300.512V70.724H283.88V95H272.372ZM307.891 95V36.2H319.399V85.256H336.871V95H307.891ZM367.432 36.2C371.352 39.392 374.264 43.676 376.168 49.052C378.072 54.428 379.024 59.972 379.024 65.684C379.024 71.34 378.1 76.716 376.252 81.812C374.404 86.908 371.464 91.304 367.432 95H350.128C346.096 91.304 343.156 86.908 341.308 81.812C339.46 76.716 338.536 71.34 338.536 65.684C338.536 59.972 339.488 54.428 341.392 49.052C343.296 43.676 346.208 39.392 350.128 36.2H367.432ZM355.756 85.256H361.804C363.204 83.632 364.38 81 365.332 77.36C366.34 73.664 366.844 69.772 366.844 65.684C366.844 61.596 366.368 57.76 365.416 54.176C364.464 50.536 363.288 47.904 361.888 46.28H355.756C354.356 47.904 353.152 50.536 352.144 54.176C351.192 57.76 350.716 61.596 350.716 65.684C350.716 69.772 351.192 73.664 352.144 77.36C353.152 81 354.356 83.632 355.756 85.256ZM414.555 95L408.675 60.308H408.339L402.291 95H390.531L382.383 36.2H393.639L395.991 53.504L397.755 72.992H398.175L401.283 53.588L403.887 36.2H413.379L415.899 53.588L419.091 72.992H419.511L421.191 53.504L423.543 36.2H434.799L426.651 95H414.555Z"/>
</mask>
<path d="M163.456 85.256H171.016C172.584 83.296 173.816 80.44 174.712 76.688C175.664 72.936 176.14 69.212 176.14 65.516C176.14 56.724 174.488 50.312 171.184 46.28H163.456V85.256ZM152.032 95V36.2H176.392C184.344 43.256 188.32 52.832 188.32 64.928C188.32 76.968 184.596 86.992 177.148 95H152.032ZM194.852 95V36.2H225.008V46.28H206.36V60.308H222.992V70.052H206.36V85.256H225.344V95H194.852ZM267.884 36.2L255.956 95H240.164L228.236 36.2H240.332L244.952 63.416L247.808 81.056H248.312L251.168 63.416L255.788 36.2H267.884ZM272.372 95V36.2H303.032V46.28H283.88V60.98H300.512V70.724H283.88V95H272.372ZM307.891 95V36.2H319.399V85.256H336.871V95H307.891ZM367.432 36.2C371.352 39.392 374.264 43.676 376.168 49.052C378.072 54.428 379.024 59.972 379.024 65.684C379.024 71.34 378.1 76.716 376.252 81.812C374.404 86.908 371.464 91.304 367.432 95H350.128C346.096 91.304 343.156 86.908 341.308 81.812C339.46 76.716 338.536 71.34 338.536 65.684C338.536 59.972 339.488 54.428 341.392 49.052C343.296 43.676 346.208 39.392 350.128 36.2H367.432ZM355.756 85.256H361.804C363.204 83.632 364.38 81 365.332 77.36C366.34 73.664 366.844 69.772 366.844 65.684C366.844 61.596 366.368 57.76 365.416 54.176C364.464 50.536 363.288 47.904 361.888 46.28H355.756C354.356 47.904 353.152 50.536 352.144 54.176C351.192 57.76 350.716 61.596 350.716 65.684C350.716 69.772 351.192 73.664 352.144 77.36C353.152 81 354.356 83.632 355.756 85.256ZM414.555 95L408.675 60.308H408.339L402.291 95H390.531L382.383 36.2H393.639L395.991 53.504L397.755 72.992H398.175L401.283 53.588L403.887 36.2H413.379L415.899 53.588L419.091 72.992H419.511L421.191 53.504L423.543 36.2H434.799L426.651 95H414.555Z" fill="#153D60"/>
<path d="M163.456 85.256H162.456V86.256H163.456V85.256ZM171.016 85.256V86.256H171.497L171.797 85.8807L171.016 85.256ZM174.712 76.688L173.743 76.442L173.739 76.4557L174.712 76.688ZM171.184 46.28L171.957 45.6462L171.657 45.28H171.184V46.28ZM163.456 46.28V45.28H162.456V46.28H163.456ZM152.032 95H151.032V96H152.032V95ZM152.032 36.2V35.2H151.032V36.2H152.032ZM176.392 36.2L177.056 35.452L176.772 35.2H176.392V36.2ZM177.148 95V96H177.584L177.88 95.681L177.148 95ZM163.456 85.256V86.256H171.016V85.256V84.256H163.456V85.256ZM171.016 85.256L171.797 85.8807C173.493 83.7605 174.771 80.7461 175.685 76.9203L174.712 76.688L173.739 76.4557C172.861 80.1339 171.675 82.8315 170.235 84.6313L171.016 85.256ZM174.712 76.688L175.681 76.9339C176.653 73.1054 177.14 69.2988 177.14 65.516H176.14H175.14C175.14 69.1252 174.675 72.7666 173.743 76.4421L174.712 76.688ZM176.14 65.516H177.14C177.14 56.6381 175.479 49.9438 171.957 45.6462L171.184 46.28L170.411 46.9138C173.497 50.6802 175.14 56.8099 175.14 65.516H176.14ZM171.184 46.28V45.28H163.456V46.28V47.28H171.184V46.28ZM163.456 46.28H162.456V85.256H163.456H164.456V46.28H163.456ZM152.032 95H153.032V36.2H152.032H151.032V95H152.032ZM152.032 36.2V37.2H176.392V36.2V35.2H152.032V36.2ZM176.392 36.2L175.728 36.948C183.436 43.787 187.32 53.0742 187.32 64.928H188.32H189.32C189.32 52.5898 185.252 42.725 177.056 35.452L176.392 36.2ZM188.32 64.928H187.32C187.32 76.743 183.674 86.5153 176.416 94.319L177.148 95L177.88 95.681C185.518 87.4687 189.32 77.193 189.32 64.928H188.32ZM177.148 95V94H152.032V95V96H177.148V95ZM194.852 95H193.852V96H194.852V95ZM194.852 36.2V35.2H193.852V36.2H194.852ZM225.008 36.2H226.008V35.2H225.008V36.2ZM225.008 46.28V47.28H226.008V46.28H225.008ZM206.36 46.28V45.28H205.36V46.28H206.36ZM206.36 60.308H205.36V61.308H206.36V60.308ZM222.992 60.308H223.992V59.308H222.992V60.308ZM222.992 70.052V71.052H223.992V70.052H222.992ZM206.36 70.052V69.052H205.36V70.052H206.36ZM206.36 85.256H205.36V86.256H206.36V85.256ZM225.344 85.256H226.344V84.256H225.344V85.256ZM225.344 95V96H226.344V95H225.344ZM194.852 95H195.852V36.2H194.852H193.852V95H194.852ZM194.852 36.2V37.2H225.008V36.2V35.2H194.852V36.2ZM225.008 36.2H224.008V46.28H225.008H226.008V36.2H225.008ZM225.008 46.28V45.28H206.36V46.28V47.28H225.008V46.28ZM206.36 46.28H205.36V60.308H206.36H207.36V46.28H206.36ZM206.36 60.308V61.308H222.992V60.308V59.308H206.36V60.308ZM222.992 60.308H221.992V70.052H222.992H223.992V60.308H222.992ZM222.992 70.052V69.052H206.36V70.052V71.052H222.992V70.052ZM206.36 70.052H205.36V85.256H206.36H207.36V70.052H206.36ZM206.36 85.256V86.256H225.344V85.256V84.256H206.36V85.256ZM225.344 85.256H224.344V95H225.344H226.344V85.256H225.344ZM225.344 95V94H194.852V95V96H225.344V95ZM267.884 36.2L268.864 36.3988L269.108 35.2H267.884V36.2ZM255.956 95V96H256.774L256.936 95.1988L255.956 95ZM240.164 95L239.184 95.1988L239.347 96H240.164V95ZM228.236 36.2V35.2H227.013L227.256 36.3988L228.236 36.2ZM240.332 36.2L241.318 36.0326L241.177 35.2H240.332V36.2ZM244.952 63.416L245.94 63.2562L245.938 63.2486L244.952 63.416ZM247.808 81.056L246.821 81.2158L246.957 82.056H247.808V81.056ZM248.312 81.056V82.056H249.164L249.3 81.2158L248.312 81.056ZM251.168 63.416L250.182 63.2486L250.181 63.2562L251.168 63.416ZM255.788 36.2V35.2H254.944L254.803 36.0326L255.788 36.2ZM267.884 36.2L266.904 36.0012L254.976 94.8012L255.956 95L256.936 95.1988L268.864 36.3988L267.884 36.2ZM255.956 95V94H240.164V95V96H255.956V95ZM240.164 95L241.144 94.8012L229.216 36.0012L228.236 36.2L227.256 36.3988L239.184 95.1988L240.164 95ZM228.236 36.2V37.2H240.332V36.2V35.2H228.236V36.2ZM240.332 36.2L239.347 36.3674L243.967 63.5834L244.952 63.416L245.938 63.2486L241.318 36.0326L240.332 36.2ZM244.952 63.416L243.965 63.5758L246.821 81.2158L247.808 81.056L248.796 80.8962L245.94 63.2562L244.952 63.416ZM247.808 81.056V82.056H248.312V81.056V80.056H247.808V81.056ZM248.312 81.056L249.3 81.2158L252.156 63.5758L251.168 63.416L250.181 63.2562L247.325 80.8962L248.312 81.056ZM251.168 63.416L252.154 63.5834L256.774 36.3674L255.788 36.2L254.803 36.0326L250.183 63.2486L251.168 63.416ZM255.788 36.2V37.2H267.884V36.2V35.2H255.788V36.2ZM272.372 95H271.372V96H272.372V95ZM272.372 36.2V35.2H271.372V36.2H272.372ZM303.032 36.2H304.032V35.2H303.032V36.2ZM303.032 46.28V47.28H304.032V46.28H303.032ZM283.88 46.28V45.28H282.88V46.28H283.88ZM283.88 60.98H282.88V61.98H283.88V60.98ZM300.512 60.98H301.512V59.98H300.512V60.98ZM300.512 70.724V71.724H301.512V70.724H300.512ZM283.88 70.724V69.724H282.88V70.724H283.88ZM283.88 95V96H284.88V95H283.88ZM272.372 95H273.372V36.2H272.372H271.372V95H272.372ZM272.372 36.2V37.2H303.032V36.2V35.2H272.372V36.2ZM303.032 36.2H302.032V46.28H303.032H304.032V36.2H303.032ZM303.032 46.28V45.28H283.88V46.28V47.28H303.032V46.28ZM283.88 46.28H282.88V60.98H283.88H284.88V46.28H283.88ZM283.88 60.98V61.98H300.512V60.98V59.98H283.88V60.98ZM300.512 60.98H299.512V70.724H300.512H301.512V60.98H300.512ZM300.512 70.724V69.724H283.88V70.724V71.724H300.512V70.724ZM283.88 70.724H282.88V95H283.88H284.88V70.724H283.88ZM283.88 95V94H272.372V95V96H283.88V95ZM307.891 95H306.891V96H307.891V95ZM307.891 36.2V35.2H306.891V36.2H307.891ZM319.399 36.2H320.399V35.2H319.399V36.2ZM319.399 85.256H318.399V86.256H319.399V85.256ZM336.871 85.256H337.871V84.256H336.871V85.256ZM336.871 95V96H337.871V95H336.871ZM307.891 95H308.891V36.2H307.891H306.891V95H307.891ZM307.891 36.2V37.2H319.399V36.2V35.2H307.891V36.2ZM319.399 36.2H318.399V85.256H319.399H320.399V36.2H319.399ZM319.399 85.256V86.256H336.871V85.256V84.256H319.399V85.256ZM336.871 85.256H335.871V95H336.871H337.871V85.256H336.871ZM336.871 95V94H307.891V95V96H336.871V95ZM367.432 36.2L368.063 35.4246L367.787 35.2H367.432V36.2ZM376.168 49.052L375.225 49.3858L375.225 49.3858L376.168 49.052ZM376.252 81.812L377.192 82.1529L377.192 82.1529L376.252 81.812ZM367.432 95V96H367.821L368.107 95.7372L367.432 95ZM350.128 95L349.452 95.7372L349.739 96H350.128V95ZM341.392 49.052L340.449 48.7181L340.449 48.7181L341.392 49.052ZM350.128 36.2V35.2H349.772L349.496 35.4246L350.128 36.2ZM355.756 85.256L354.998 85.9089L355.297 86.256H355.756V85.256ZM361.804 85.256V86.256H362.262L362.561 85.9089L361.804 85.256ZM365.332 77.36L364.367 77.0969L364.364 77.107L365.332 77.36ZM365.416 54.176L364.448 54.429L364.449 54.4327L365.416 54.176ZM361.888 46.28L362.645 45.6271L362.346 45.28H361.888V46.28ZM355.756 46.28V45.28H355.297L354.998 45.6271L355.756 46.28ZM352.144 54.176L351.18 53.9091L351.177 53.9193L352.144 54.176ZM352.144 77.36L351.175 77.6094L351.177 77.6182L351.18 77.6269L352.144 77.36ZM367.432 36.2L366.8 36.9754C370.56 40.0372 373.374 44.1601 375.225 49.3858L376.168 49.052L377.11 48.7181C375.153 43.1919 372.143 38.7467 368.063 35.4246L367.432 36.2ZM376.168 49.052L375.225 49.3858C377.091 54.6545 378.024 60.0856 378.024 65.684H379.024H380.024C380.024 59.8584 379.052 54.2015 377.11 48.7181L376.168 49.052ZM379.024 65.684H378.024C378.024 71.2288 377.118 76.4891 375.312 81.4711L376.252 81.812L377.192 82.1529C379.081 76.9429 380.024 71.4511 380.024 65.684H379.024ZM376.252 81.812L375.312 81.4711C373.519 86.4142 370.67 90.6747 366.756 94.2628L367.432 95L368.107 95.7372C372.257 91.9333 375.288 87.4018 377.192 82.1529L376.252 81.812ZM367.432 95V94H350.128V95V96H367.432V95ZM350.128 95L350.803 94.2628C346.889 90.6747 344.04 86.4142 342.248 81.4711L341.308 81.812L340.368 82.1529C342.271 87.4018 345.302 91.9333 349.452 95.7372L350.128 95ZM341.308 81.812L342.248 81.4711C340.441 76.4891 339.536 71.2288 339.536 65.684H338.536H337.536C337.536 71.4511 338.478 76.9429 340.368 82.1529L341.308 81.812ZM338.536 65.684H339.536C339.536 60.0856 340.468 54.6545 342.334 49.3858L341.392 49.052L340.449 48.7181C338.507 54.2015 337.536 59.8584 337.536 65.684H338.536ZM341.392 49.052L342.334 49.3858C344.185 44.1601 346.999 40.0372 350.759 36.9754L350.128 36.2L349.496 35.4246C345.416 38.7467 342.406 43.1919 340.449 48.7181L341.392 49.052ZM350.128 36.2V37.2H367.432V36.2V35.2H350.128V36.2ZM355.756 85.256V86.256H361.804V85.256V84.256H355.756V85.256ZM361.804 85.256L362.561 85.9089C364.11 84.1127 365.333 81.3052 366.299 77.613L365.332 77.36L364.364 77.107C363.426 80.6948 362.298 83.1513 361.046 84.6031L361.804 85.256ZM365.332 77.36L366.296 77.6231C367.329 73.8358 367.844 69.8549 367.844 65.684H366.844H365.844C365.844 69.6891 365.35 73.4922 364.367 77.0969L365.332 77.36ZM366.844 65.684H367.844C367.844 61.5181 367.359 57.5951 366.382 53.9193L365.416 54.176L364.449 54.4327C365.377 57.9249 365.844 61.6739 365.844 65.684H366.844ZM365.416 54.176L366.383 53.923C365.417 50.2308 364.194 47.4233 362.645 45.6271L361.888 46.28L361.13 46.9329C362.382 48.3847 363.51 50.8412 364.448 54.429L365.416 54.176ZM361.888 46.28V45.28H355.756V46.28V47.28H361.888V46.28ZM355.756 46.28L354.998 45.6271C353.454 47.418 352.202 50.2193 351.18 53.9091L352.144 54.176L353.107 54.4429C354.102 50.8527 355.257 48.39 356.513 46.9329L355.756 46.28ZM352.144 54.176L351.177 53.9193C350.201 57.5951 349.716 61.5181 349.716 65.684H350.716H351.716C351.716 61.6739 352.183 57.9249 353.11 54.4327L352.144 54.176ZM350.716 65.684H349.716C349.716 69.8502 350.201 73.8264 351.175 77.6094L352.144 77.36L353.112 77.1106C352.182 73.5016 351.716 69.6938 351.716 65.684H350.716ZM352.144 77.36L351.18 77.6269C352.202 81.3167 353.454 84.118 354.998 85.9089L355.756 85.256L356.513 84.6031C355.257 83.146 354.102 80.6833 353.107 77.0931L352.144 77.36ZM414.555 95L413.569 95.1671L413.71 96H414.555V95ZM408.675 60.308L409.661 60.1409L409.52 59.308H408.675V60.308ZM408.339 60.308V59.308H407.498L407.354 60.1363L408.339 60.308ZM402.291 95V96H403.132L403.276 95.1717L402.291 95ZM390.531 95L389.54 95.1373L389.66 96H390.531V95ZM382.383 36.2V35.2H381.235L381.392 36.3373L382.383 36.2ZM393.639 36.2L394.63 36.0653L394.512 35.2H393.639V36.2ZM395.991 53.504L396.987 53.4138L396.985 53.3915L396.982 53.3693L395.991 53.504ZM397.755 72.992L396.759 73.0821L396.841 73.992H397.755V72.992ZM398.175 72.992V73.992H399.028L399.162 73.1502L398.175 72.992ZM401.283 53.588L402.27 53.7462L402.272 53.7361L401.283 53.588ZM403.887 36.2V35.2H403.026L402.898 36.0519L403.887 36.2ZM413.379 36.2L414.369 36.0566L414.244 35.2H413.379V36.2ZM415.899 53.588L414.909 53.7314L414.911 53.7409L414.912 53.7503L415.899 53.588ZM419.091 72.992L418.104 73.1543L418.242 73.992H419.091V72.992ZM419.511 72.992V73.992H420.428L420.507 73.0779L419.511 72.992ZM421.191 53.504L420.2 53.3693L420.197 53.3936L420.195 53.4181L421.191 53.504ZM423.543 36.2V35.2H422.67L422.552 36.0653L423.543 36.2ZM434.799 36.2L435.79 36.3373L435.947 35.2H434.799V36.2ZM426.651 95V96H427.522L427.642 95.1373L426.651 95ZM414.555 95L415.541 94.8329L409.661 60.1409L408.675 60.308L407.689 60.4751L413.569 95.1671L414.555 95ZM408.675 60.308V59.308H408.339V60.308V61.308H408.675V60.308ZM408.339 60.308L407.354 60.1363L401.306 94.8283L402.291 95L403.276 95.1717L409.324 60.4797L408.339 60.308ZM402.291 95V94H390.531V95V96H402.291V95ZM390.531 95L391.522 94.8627L383.374 36.0627L382.383 36.2L381.392 36.3373L389.54 95.1373L390.531 95ZM382.383 36.2V37.2H393.639V36.2V35.2H382.383V36.2ZM393.639 36.2L392.648 36.3347L395 53.6387L395.991 53.504L396.982 53.3693L394.63 36.0653L393.639 36.2ZM395.991 53.504L394.995 53.5941L396.759 73.0821L397.755 72.992L398.751 72.9018L396.987 53.4138L395.991 53.504ZM397.755 72.992V73.992H398.175V72.992V71.992H397.755V72.992ZM398.175 72.992L399.162 73.1502L402.27 53.7462L401.283 53.588L400.296 53.4298L397.188 72.8338L398.175 72.992ZM401.283 53.588L402.272 53.7361L404.876 36.3481L403.887 36.2L402.898 36.0519L400.294 53.4399L401.283 53.588ZM403.887 36.2V37.2H413.379V36.2V35.2H403.887V36.2ZM413.379 36.2L412.389 36.3434L414.909 53.7314L415.899 53.588L416.889 53.4446L414.369 36.0566L413.379 36.2ZM415.899 53.588L414.912 53.7503L418.104 73.1543L419.091 72.992L420.078 72.8297L416.886 53.4257L415.899 53.588ZM419.091 72.992V73.992H419.511V72.992V71.992H419.091V72.992ZM419.511 72.992L420.507 73.0779L422.187 53.5899L421.191 53.504L420.195 53.4181L418.515 72.9061L419.511 72.992ZM421.191 53.504L422.182 53.6387L424.534 36.3347L423.543 36.2L422.552 36.0653L420.2 53.3693L421.191 53.504ZM423.543 36.2V37.2H434.799V36.2V35.2H423.543V36.2ZM434.799 36.2L433.808 36.0627L425.66 94.8627L426.651 95L427.642 95.1373L435.79 36.3373L434.799 36.2ZM426.651 95V94H414.555V95V96H426.651V95Z" fill="#153D60" mask="url(#path-8-outside-1_73_116)"/>
</svg>
